<?xml version="1.0" standalone="no"?><!DOCTYPE svg PUBLIC "-//W3C//DTD SVG 1.1//EN" "http://www.w3.org/Graphics/SVG/1.1/DTD/svg11.dtd"><svg t="1709645908259" class="icon" viewBox="0 0 1024 1024" version="1.1" xmlns="http://www.w3.org/2000/svg" p-id="1201" xmlns:xlink="http://www.w3.org/1999/xlink" width="200" height="200"><path d="M182 204.71m72.97 0l513.71 0q72.97 0 72.97 72.97l0 435.88q0 72.97-72.97 72.97l-513.71 0q-72.97 0-72.97-72.97l0-435.88q0-72.97 72.97-72.97Z" fill="#FED54A" p-id="1202"></path><path d="M251.12 269.25m25.4 0l470.6 0q25.4 0 25.4 25.4l0 325.06q0 25.4-25.4 25.4l-470.6 0q-25.4 0-25.4-25.4l0-325.06q0-25.4 25.4-25.4Z" fill="#3A3F3B" p-id="1203"></path><path d="M132.64 707.75m60.27 0l637.82 0q60.27 0 60.27 60.27l0 0q0 60.27-60.27 60.27l-637.82 0q-60.27 0-60.27-60.27l0 0q0-60.27 60.27-60.27Z" fill="#FF7735" p-id="1204"></path><path d="M375.81 526a60.29 60.29 0 1 1 60.29-60.29A60.36 60.36 0 0 1 375.81 526z m0-90.58a30.29 30.29 0 1 0 30.29 30.29 30.33 30.33 0 0 0-30.29-30.29z" fill="#FFFFFF" p-id="1205"></path><path d="M421.4 527.21a15 15 0 0 1-15-15v-93a15 15 0 1 1 30 0v93a15 15 0 0 1-15 15zM525.23 526a60.29 60.29 0 1 1 60.29-60.29A60.35 60.35 0 0 1 525.23 526z m0-90.58a30.29 30.29 0 1 0 30.29 30.29 30.33 30.33 0 0 0-30.29-30.29z" fill="#FFFFFF" p-id="1206"></path><path d="M479.64 527.21a15 15 0 0 1-15-15v-149a15 15 0 1 1 30 0v149a15 15 0 0 1-15 15zM670.55 526a60.29 60.29 0 1 1 36.72-108.1A15 15 0 0 1 689 441.69a30 30 0 0 0-18.43-6.27 30.29 30.29 0 1 0 0 60.58 30 30 0 0 0 18.43-6.26 15 15 0 0 1 18.29 23.78A59.71 59.71 0 0 1 670.55 526z" fill="#FFFFFF" p-id="1207"></path></svg>
